# ufo_gato.obj -- generado por gen_ufo_gato.py
# Gato alienigena asomado en un platillo volador (low-poly).
# 216 vertices, 328 triangulos.
# Normal plana por cara (una 'vn' por triangulo, referenciada
# por sus 3 corners) para que obj_loader.cpp NO recalcule
# normales suaves y se conserve el facetado low-poly.

v 0.300000 -0.340000 0.000000
v 0.259808 -0.340000 0.150000
v 0.150000 -0.340000 0.259808
v 0.000000 -0.340000 0.300000
v -0.150000 -0.340000 0.259808
v -0.259808 -0.340000 0.150000
v -0.300000 -0.340000 0.000000
v -0.259808 -0.340000 -0.150000
v -0.150000 -0.340000 -0.259808
v -0.000000 -0.340000 -0.300000
v 0.150000 -0.340000 -0.259808
v 0.259808 -0.340000 -0.150000
v 1.000000 0.000000 0.000000
v 0.866025 0.000000 0.500000
v 0.500000 0.000000 0.866025
v 0.000000 0.000000 1.000000
v -0.500000 0.000000 0.866025
v -0.866025 0.000000 0.500000
v -1.000000 0.000000 0.000000
v -0.866025 0.000000 -0.500000
v -0.500000 0.000000 -0.866025
v -0.000000 0.000000 -1.000000
v 0.500000 0.000000 -0.866025
v 0.866025 0.000000 -0.500000
v 0.550000 0.220000 0.000000
v 0.476314 0.220000 0.275000
v 0.275000 0.220000 0.476314
v 0.000000 0.220000 0.550000
v -0.275000 0.220000 0.476314
v -0.476314 0.220000 0.275000
v -0.550000 0.220000 0.000000
v -0.476314 0.220000 -0.275000
v -0.275000 0.220000 -0.476314
v -0.000000 0.220000 -0.550000
v 0.275000 0.220000 -0.476314
v 0.476314 0.220000 -0.275000
v 0.340000 0.300000 0.000000
v 0.294449 0.300000 0.170000
v 0.170000 0.300000 0.294449
v 0.000000 0.300000 0.340000
v -0.170000 0.300000 0.294449
v -0.294449 0.300000 0.170000
v -0.340000 0.300000 0.000000
v -0.294449 0.300000 -0.170000
v -0.170000 0.300000 -0.294449
v -0.000000 0.300000 -0.340000
v 0.170000 0.300000 -0.294449
v 0.294449 0.300000 -0.170000
v 0.340000 0.420000 0.000000
v 0.294449 0.420000 0.170000
v 0.170000 0.420000 0.294449
v 0.000000 0.420000 0.340000
v -0.170000 0.420000 0.294449
v -0.294449 0.420000 0.170000
v -0.340000 0.420000 0.000000
v -0.294449 0.420000 -0.170000
v -0.170000 0.420000 -0.294449
v -0.000000 0.420000 -0.340000
v 0.170000 0.420000 -0.294449
v 0.294449 0.420000 -0.170000
v 0.000000 -0.460000 0.000000
v 0.536471 -0.160000 -0.070000
v 0.489643 -0.212031 -0.000000
v 0.536471 -0.160000 0.070000
v 0.583298 -0.107969 0.000000
v 0.640532 -0.253655 0.000000
v 0.328857 -0.160000 0.429597
v 0.244822 -0.212031 0.424043
v 0.207614 -0.160000 0.499597
v 0.291649 -0.107969 0.505151
v 0.320266 -0.253655 0.554717
v -0.207614 -0.160000 0.499597
v -0.244822 -0.212031 0.424043
v -0.328857 -0.160000 0.429597
v -0.291649 -0.107969 0.505151
v -0.320266 -0.253655 0.554717
v -0.536471 -0.160000 0.070000
v -0.489643 -0.212031 0.000000
v -0.536471 -0.160000 -0.070000
v -0.583298 -0.107969 0.000000
v -0.640532 -0.253655 0.000000
v -0.328857 -0.160000 -0.429597
v -0.244822 -0.212031 -0.424043
v -0.207614 -0.160000 -0.499597
v -0.291649 -0.107969 -0.505151
v -0.320266 -0.253655 -0.554717
v 0.207614 -0.160000 -0.499597
v 0.244822 -0.212031 -0.424043
v 0.328857 -0.160000 -0.429597
v 0.291649 -0.107969 -0.505151
v 0.320266 -0.253655 -0.554717
v 0.260000 0.280000 0.000000
v 0.183848 0.280000 0.183848
v 0.000000 0.280000 0.260000
v -0.183848 0.280000 0.183848
v -0.260000 0.280000 0.000000
v -0.183848 0.280000 -0.183848
v -0.000000 0.280000 -0.260000
v 0.183848 0.280000 -0.183848
v 0.300000 0.550000 0.000000
v 0.212132 0.550000 0.212132
v 0.000000 0.550000 0.300000
v -0.212132 0.550000 0.212132
v -0.300000 0.550000 0.000000
v -0.212132 0.550000 -0.212132
v -0.000000 0.550000 -0.300000
v 0.212132 0.550000 -0.212132
v 0.240000 0.740000 0.000000
v 0.169706 0.740000 0.169706
v 0.000000 0.740000 0.240000
v -0.169706 0.740000 0.169706
v -0.240000 0.740000 0.000000
v -0.169706 0.740000 -0.169706
v -0.000000 0.740000 -0.240000
v 0.169706 0.740000 -0.169706
v 0.000000 0.120000 0.000000
v 0.000000 0.900000 0.000000
v -0.047667 0.400000 0.183945
v -0.110931 0.331250 0.151216
v -0.181763 0.400000 0.143716
v -0.118500 0.468750 0.176445
v -0.159870 0.369897 0.314346
v 0.181763 0.400000 0.143716
v 0.110931 0.331250 0.151216
v 0.047667 0.400000 0.183945
v 0.118500 0.468750 0.176445
v 0.159870 0.369897 0.314346
v 0.000000 1.290000 0.040000
v 0.205692 1.210455 0.040000
v 0.166408 1.210455 0.142012
v 0.063562 1.210455 0.205058
v -0.063562 1.210455 0.205058
v -0.166408 1.210455 0.142012
v -0.205692 1.210455 0.040000
v -0.166408 1.210455 -0.062012
v -0.063562 1.210455 -0.125058
v 0.063562 1.210455 -0.125058
v 0.166408 1.210455 -0.062012
v 0.309096 1.037998 0.040000
v 0.250064 1.037998 0.193294
v 0.081189 1.024799 0.250830
v -0.081189 1.024799 0.250830
v -0.250064 1.037998 0.193294
v -0.309096 1.037998 0.040000
v -0.250064 1.037998 -0.113294
v -0.095516 1.037998 -0.208036
v 0.095516 1.037998 -0.208036
v 0.250064 1.037998 -0.113294
v 0.304338 0.844934 0.040000
v 0.246215 0.844934 0.190935
v 0.094046 0.844934 0.284217
v -0.094046 0.844934 0.284217
v -0.246215 0.844934 0.190935
v -0.304338 0.844934 0.040000
v -0.246215 0.844934 -0.110935
v -0.094046 0.844934 -0.204217
v 0.094046 0.844934 -0.204217
v 0.246215 0.844934 -0.110935
v 0.205692 0.689545 0.040000
v 0.166408 0.689545 0.142012
v 0.063562 0.689545 0.205058
v -0.063562 0.689545 0.205058
v -0.166408 0.689545 0.142012
v -0.205692 0.689545 0.040000
v -0.166408 0.689545 -0.062012
v -0.063562 0.689545 -0.125058
v 0.063562 0.689545 -0.125058
v 0.166408 0.689545 -0.062012
v 0.000000 0.610000 0.040000
v 0.100000 0.975432 0.209504
v 0.100000 0.824415 0.156648
v -0.100000 0.824415 0.156648
v -0.100000 0.975432 0.209504
v 0.000000 0.833853 0.371848
v 0.030914 1.163547 -0.012814
v -0.101362 1.134295 0.111473
v -0.196902 1.038248 -0.012814
v -0.064625 1.067500 -0.137101
v -0.267289 1.435981 -0.130093
v -0.082994 1.100897 -0.012814
v 0.196902 1.038248 -0.012814
v 0.101362 1.134295 0.111473
v -0.030914 1.163547 -0.012814
v 0.064625 1.067500 -0.137101
v 0.267289 1.435981 -0.130093
v 0.082994 1.100897 -0.012814
v -0.074363 1.103142 0.064245
v -0.041630 1.116521 0.029609
v -0.006453 1.120120 0.064245
v -0.039185 1.106741 0.098880
v -0.136411 1.495643 0.121847
v -0.136411 1.484518 0.196017
v -0.187894 1.475189 0.172405
v -0.209219 1.477842 0.119176
v -0.187894 1.490923 0.067512
v -0.136411 1.506769 0.047676
v -0.084928 1.516098 0.071288
v -0.063603 1.513445 0.124517
v -0.084928 1.500364 0.176181
v -0.154411 1.567646 0.132647
v -0.118410 1.423641 0.111046
v 0.006453 1.120120 0.064245
v 0.041630 1.116521 0.029609
v 0.074363 1.103142 0.064245
v 0.039185 1.106741 0.098880
v 0.136411 1.495643 0.121847
v 0.136411 1.484518 0.196017
v 0.084928 1.500364 0.176181
v 0.063603 1.513445 0.124517
v 0.084928 1.516098 0.071288
v 0.136411 1.506769 0.047676
v 0.187894 1.490923 0.067512
v 0.209219 1.477842 0.119176
v 0.187894 1.475189 0.172405
v 0.154411 1.567646 0.132647
v 0.118410 1.423641 0.111046

vn 0.433941 -0.893407 0.116274
vn 0.433941 -0.893407 0.116274
vn 0.317667 -0.893407 0.317667
vn 0.317667 -0.893407 0.317667
vn 0.116274 -0.893407 0.433941
vn 0.116274 -0.893407 0.433941
vn -0.116274 -0.893407 0.433941
vn -0.116274 -0.893407 0.433941
vn -0.317667 -0.893407 0.317667
vn -0.317667 -0.893407 0.317667
vn -0.433941 -0.893407 0.116274
vn -0.433941 -0.893407 0.116274
vn -0.433941 -0.893407 -0.116274
vn -0.433941 -0.893407 -0.116274
vn -0.317667 -0.893407 -0.317667
vn -0.317667 -0.893407 -0.317667
vn -0.116274 -0.893407 -0.433941
vn -0.116274 -0.893407 -0.433941
vn 0.116274 -0.893407 -0.433941
vn 0.116274 -0.893407 -0.433941
vn 0.317667 -0.893407 -0.317667
vn 0.317667 -0.893407 -0.317667
vn 0.433941 -0.893407 -0.116274
vn 0.433941 -0.893407 -0.116274
vn 0.436200 0.892227 0.116879
vn 0.436200 0.892227 0.116879
vn 0.319320 0.892227 0.319320
vn 0.319320 0.892227 0.319320
vn 0.116879 0.892227 0.436200
vn 0.116879 0.892227 0.436200
vn -0.116879 0.892227 0.436200
vn -0.116879 0.892227 0.436200
vn -0.319320 0.892227 0.319320
vn -0.319320 0.892227 0.319320
vn -0.436200 0.892227 0.116879
vn -0.436200 0.892227 0.116879
vn -0.436200 0.892227 -0.116879
vn -0.436200 0.892227 -0.116879
vn -0.319320 0.892227 -0.319320
vn -0.319320 0.892227 -0.319320
vn -0.116879 0.892227 -0.436200
vn -0.116879 0.892227 -0.436200
vn 0.116879 0.892227 -0.436200
vn 0.116879 0.892227 -0.436200
vn 0.319320 0.892227 -0.319320
vn 0.319320 0.892227 -0.319320
vn 0.436200 0.892227 -0.116879
vn 0.436200 0.892227 -0.116879
vn 0.354387 0.930265 0.094958
vn 0.354387 0.930265 0.094958
vn 0.259429 0.930265 0.259429
vn 0.259429 0.930265 0.259429
vn 0.094958 0.930265 0.354387
vn 0.094958 0.930265 0.354387
vn -0.094958 0.930265 0.354387
vn -0.094958 0.930265 0.354387
vn -0.259429 0.930265 0.259429
vn -0.259429 0.930265 0.259429
vn -0.354387 0.930265 0.094958
vn -0.354387 0.930265 0.094958
vn -0.354387 0.930265 -0.094958
vn -0.354387 0.930265 -0.094958
vn -0.259429 0.930265 -0.259429
vn -0.259429 0.930265 -0.259429
vn -0.094958 0.930265 -0.354387
vn -0.094958 0.930265 -0.354387
vn 0.094958 0.930265 -0.354387
vn 0.094958 0.930265 -0.354387
vn 0.259429 0.930265 -0.259429
vn 0.259429 0.930265 -0.259429
vn 0.354387 0.930265 -0.094958
vn 0.354387 0.930265 -0.094958
vn 0.965926 0.000000 0.258819
vn 0.965926 -0.000000 0.258819
vn 0.707107 0.000000 0.707107
vn 0.707107 -0.000000 0.707107
vn 0.258819 0.000000 0.965926
vn 0.258819 -0.000000 0.965926
vn -0.258819 0.000000 0.965926
vn -0.258819 0.000000 0.965926
vn -0.707107 0.000000 0.707107
vn -0.707107 0.000000 0.707107
vn -0.965926 0.000000 0.258819
vn -0.965926 0.000000 0.258819
vn -0.965926 0.000000 -0.258819
vn -0.965926 0.000000 -0.258819
vn -0.707107 0.000000 -0.707107
vn -0.707107 0.000000 -0.707107
vn -0.258819 0.000000 -0.965926
vn -0.258819 0.000000 -0.965926
vn 0.258819 0.000000 -0.965926
vn 0.258819 0.000000 -0.965926
vn 0.707107 0.000000 -0.707107
vn 0.707107 0.000000 -0.707107
vn 0.965926 0.000000 -0.258819
vn 0.965926 0.000000 -0.258819
vn 0.369565 -0.923913 0.099025
vn 0.270541 -0.923913 0.270541
vn 0.099025 -0.923913 0.369565
vn -0.099025 -0.923913 0.369565
vn -0.270541 -0.923913 0.270541
vn -0.369565 -0.923913 0.099025
vn -0.369565 -0.923913 -0.099025
vn -0.270541 -0.923913 -0.270541
vn -0.099025 -0.923913 -0.369565
vn 0.099025 -0.923913 -0.369565
vn 0.270541 -0.923913 -0.270541
vn 0.369565 -0.923913 -0.099025
vn -0.198212 -0.718518 -0.666667
vn -0.198212 -0.718518 0.666667
vn 0.693741 0.272541 0.666667
vn 0.693741 0.272541 -0.666667
vn 0.478244 -0.718518 -0.504990
vn -0.676456 -0.718518 0.161677
vn -0.230480 0.272541 0.934131
vn 0.924221 0.272541 0.267464
vn 0.676456 -0.718518 0.161677
vn -0.478244 -0.718518 -0.504990
vn -0.924221 0.272541 0.267464
vn 0.230480 0.272541 0.934131
vn 0.198212 -0.718518 0.666667
vn 0.198212 -0.718518 -0.666667
vn -0.693741 0.272541 -0.666667
vn -0.693741 0.272541 0.666667
vn -0.478244 -0.718518 0.504990
vn 0.676456 -0.718518 -0.161677
vn 0.230480 0.272541 -0.934131
vn -0.924221 0.272541 -0.267464
vn -0.676456 -0.718518 -0.161677
vn 0.478244 -0.718518 0.504990
vn 0.924221 0.272541 -0.267464
vn -0.230480 0.272541 -0.934131
vn 0.512168 -0.832273 0.212147
vn 0.212147 -0.832273 0.512168
vn -0.212147 -0.832273 0.512168
vn -0.512168 -0.832273 0.212147
vn -0.512168 -0.832273 -0.212147
vn -0.212147 -0.832273 -0.512168
vn 0.212147 -0.832273 -0.512168
vn 0.512168 -0.832273 -0.212147
vn 0.915345 -0.135607 0.379148
vn 0.915345 -0.135607 0.379148
vn 0.379148 -0.135607 0.915345
vn 0.379148 -0.135607 0.915345
vn -0.379148 -0.135607 0.915345
vn -0.379148 -0.135607 0.915345
vn -0.915345 -0.135607 0.379148
vn -0.915345 -0.135607 0.379148
vn -0.915345 -0.135607 -0.379148
vn -0.915345 -0.135607 -0.379148
vn -0.379148 -0.135607 -0.915345
vn -0.379148 -0.135607 -0.915345
vn 0.379148 -0.135607 -0.915345
vn 0.379148 -0.135607 -0.915345
vn 0.915345 -0.135607 -0.379148
vn 0.915345 -0.135607 -0.379148
vn 0.886904 0.280075 0.367368
vn 0.886904 0.280075 0.367368
vn 0.367368 0.280075 0.886904
vn 0.367368 0.280075 0.886904
vn -0.367368 0.280075 0.886904
vn -0.367368 0.280075 0.886904
vn -0.886904 0.280075 0.367368
vn -0.886904 0.280075 0.367368
vn -0.886904 0.280075 -0.367368
vn -0.886904 0.280075 -0.367368
vn -0.367368 0.280075 -0.886904
vn -0.367368 0.280075 -0.886904
vn 0.367368 0.280075 -0.886904
vn 0.367368 0.280075 -0.886904
vn 0.886904 0.280075 -0.367368
vn 0.886904 0.280075 -0.367368
vn 0.540614 0.810921 0.223930
vn 0.223930 0.810921 0.540614
vn -0.223930 0.810921 0.540614
vn -0.540614 0.810921 0.223930
vn -0.540614 0.810921 -0.223930
vn -0.223930 0.810921 -0.540614
vn 0.223930 0.810921 -0.540614
vn 0.540614 0.810921 -0.223930
vn 0.600146 -0.719061 0.350395
vn -0.693917 -0.719061 -0.037824
vn -0.766958 0.607853 0.205647
vn 0.527105 0.607853 0.593865
vn 0.693917 -0.719061 -0.037824
vn -0.600146 -0.719061 0.350395
vn -0.527105 0.607853 0.593865
vn 0.766958 0.607853 0.205647
vn 0.357257 0.923818 0.137576
vn 0.217355 0.909418 0.354565
vn 0.000000 0.900847 0.434136
vn -0.217355 0.909418 0.354565
vn -0.357257 0.923818 0.137576
vn -0.357257 0.923818 -0.137576
vn -0.217355 0.909418 -0.354565
vn -0.000000 0.900847 -0.434136
vn 0.217355 0.909418 -0.354565
vn 0.357257 0.923818 -0.137576
vn 0.814379 0.488298 0.313609
vn 0.814379 0.488298 0.313609
vn 0.293915 0.255014 0.921185
vn 0.466138 0.452231 0.760396
vn 0.000000 0.239373 0.970928
vn 0.000000 0.239373 0.970928
vn -0.269062 0.392108 0.879692
vn -0.505841 0.251460 0.825162
vn -0.814379 0.488298 0.313609
vn -0.814379 0.488298 0.313609
vn -0.814379 0.488298 -0.313609
vn -0.814379 0.488298 -0.313609
vn -0.466138 0.452231 -0.760396
vn -0.466138 0.452231 -0.760396
vn -0.000000 0.433572 -0.901119
vn -0.000000 0.433572 -0.901119
vn 0.466138 0.452231 -0.760396
vn 0.466138 0.452231 -0.760396
vn 0.814379 0.488298 -0.313609
vn 0.814379 0.488298 -0.313609
vn 0.932950 -0.022993 0.359270
vn 0.932950 -0.022993 0.359270
vn 0.512913 0.191975 0.836699
vn 0.323705 -0.018017 0.945986
vn 0.000000 0.182506 0.983205
vn 0.000000 0.182506 0.983205
vn -0.522521 -0.020837 0.852372
vn -0.302639 0.194817 0.932982
vn -0.932950 -0.022993 0.359270
vn -0.932950 -0.022993 0.359270
vn -0.932950 -0.022993 -0.359270
vn -0.932950 -0.022993 -0.359270
vn -0.522521 -0.020837 -0.852372
vn -0.522521 -0.020837 -0.852372
vn -0.000000 -0.019773 -0.999804
vn -0.000000 -0.019773 -0.999804
vn 0.522521 -0.020837 -0.852372
vn 0.522521 -0.020837 -0.852372
vn 0.932950 -0.022993 -0.359270
vn 0.932950 -0.022993 -0.359270
vn 0.802881 -0.509694 0.309182
vn 0.802881 -0.509694 0.309182
vn 0.460476 -0.472991 0.751160
vn 0.460476 -0.472991 0.751160
vn 0.000000 -0.453918 0.891043
vn 0.000000 -0.453918 0.891043
vn -0.460476 -0.472991 0.751160
vn -0.460476 -0.472991 0.751160
vn -0.802881 -0.509694 0.309182
vn -0.802881 -0.509694 0.309182
vn -0.802881 -0.509694 -0.309182
vn -0.802881 -0.509694 -0.309182
vn -0.460476 -0.472991 -0.751160
vn -0.460476 -0.472991 -0.751160
vn -0.000000 -0.453918 -0.891043
vn -0.000000 -0.453918 -0.891043
vn 0.460476 -0.472991 -0.751160
vn 0.460476 -0.472991 -0.751160
vn 0.802881 -0.509694 -0.309182
vn 0.802881 -0.509694 -0.309182
vn 0.357257 -0.923818 0.137576
vn 0.217355 -0.909418 0.354565
vn 0.000000 -0.900847 0.434136
vn -0.217355 -0.909418 0.354565
vn -0.357257 -0.923818 0.137576
vn -0.357257 -0.923818 -0.137576
vn -0.217355 -0.909418 -0.354565
vn -0.000000 -0.900847 -0.434136
vn 0.217355 -0.909418 -0.354565
vn 0.357257 -0.923818 -0.137576
vn 0.894427 -0.147737 0.422106
vn 0.000000 -0.999040 0.043818
vn -0.894427 -0.147737 0.422106
vn -0.000000 0.753661 0.657263
vn 0.403272 0.696778 0.593189
vn -0.804405 0.032556 0.593189
vn -0.609657 -0.321532 -0.724525
vn 0.598020 0.342690 -0.724525
vn 0.460739 -0.837708 0.293198
vn 0.460739 -0.837708 0.293198
vn 0.460739 -0.837708 0.293198
vn 0.460739 -0.837708 0.293198
vn 0.804405 0.032556 0.593189
vn -0.403272 0.696778 0.593189
vn -0.598020 0.342690 -0.724525
vn 0.609657 -0.321532 -0.724525
vn -0.460739 -0.837708 0.293198
vn -0.460739 -0.837708 0.293198
vn -0.460739 -0.837708 0.293198
vn -0.460739 -0.837708 0.293198
vn -0.724156 -0.013288 -0.689508
vn 0.645214 0.329055 -0.689508
vn 0.694513 0.131859 0.707294
vn -0.674857 -0.210484 0.707294
vn -0.435738 0.484096 0.758804
vn -0.821632 0.448712 0.351536
vn -0.821632 0.532105 -0.204414
vn -0.435738 0.685423 -0.583377
vn 0.110000 0.818855 -0.563362
vn 0.495895 0.854238 -0.156093
vn 0.495895 0.770846 0.399856
vn 0.110000 0.617528 0.778819
vn -0.110000 -0.818855 0.563362
vn -0.495895 -0.854238 0.156093
vn -0.495895 -0.770846 -0.399856
vn -0.110000 -0.617528 -0.778819
vn 0.435738 -0.484096 -0.758804
vn 0.821632 -0.448712 -0.351536
vn 0.821632 -0.532105 0.204414
vn 0.435738 -0.685423 0.583377
vn -0.645214 0.329055 -0.689508
vn 0.724156 -0.013288 -0.689508
vn 0.674857 -0.210484 0.707294
vn -0.694513 0.131859 0.707294
vn -0.110000 0.617528 0.778819
vn -0.495895 0.770846 0.399856
vn -0.495895 0.854238 -0.156093
vn -0.110000 0.818855 -0.563362
vn 0.435738 0.685423 -0.583377
vn 0.821632 0.532105 -0.204414
vn 0.821632 0.448712 0.351536
vn 0.435738 0.484096 0.758804
vn -0.435738 -0.685423 0.583377
vn -0.821632 -0.532105 0.204414
vn -0.821632 -0.448712 -0.351536
vn -0.435738 -0.484096 -0.758804
vn 0.110000 -0.617528 -0.778819
vn 0.495895 -0.770846 -0.399856
vn 0.495895 -0.854238 0.156093
vn 0.110000 -0.818855 0.563362

f 1//1 14//1 2//1
f 1//2 13//2 14//2
f 2//3 15//3 3//3
f 2//4 14//4 15//4
f 3//5 16//5 4//5
f 3//6 15//6 16//6
f 4//7 17//7 5//7
f 4//8 16//8 17//8
f 5//9 18//9 6//9
f 5//10 17//10 18//10
f 6//11 19//11 7//11
f 6//12 18//12 19//12
f 7//13 20//13 8//13
f 7//14 19//14 20//14
f 8//15 21//15 9//15
f 8//16 20//16 21//16
f 9//17 22//17 10//17
f 9//18 21//18 22//18
f 10//19 23//19 11//19
f 10//20 22//20 23//20
f 11//21 24//21 12//21
f 11//22 23//22 24//22
f 12//23 13//23 1//23
f 12//24 24//24 13//24
f 13//25 26//25 14//25
f 13//26 25//26 26//26
f 14//27 27//27 15//27
f 14//28 26//28 27//28
f 15//29 28//29 16//29
f 15//30 27//30 28//30
f 16//31 29//31 17//31
f 16//32 28//32 29//32
f 17//33 30//33 18//33
f 17//34 29//34 30//34
f 18//35 31//35 19//35
f 18//36 30//36 31//36
f 19//37 32//37 20//37
f 19//38 31//38 32//38
f 20//39 33//39 21//39
f 20//40 32//40 33//40
f 21//41 34//41 22//41
f 21//42 33//42 34//42
f 22//43 35//43 23//43
f 22//44 34//44 35//44
f 23//45 36//45 24//45
f 23//46 35//46 36//46
f 24//47 25//47 13//47
f 24//48 36//48 25//48
f 25//49 38//49 26//49
f 25//50 37//50 38//50
f 26//51 39//51 27//51
f 26//52 38//52 39//52
f 27//53 40//53 28//53
f 27//54 39//54 40//54
f 28//55 41//55 29//55
f 28//56 40//56 41//56
f 29//57 42//57 30//57
f 29//58 41//58 42//58
f 30//59 43//59 31//59
f 30//60 42//60 43//60
f 31//61 44//61 32//61
f 31//62 43//62 44//62
f 32//63 45//63 33//63
f 32//64 44//64 45//64
f 33//65 46//65 34//65
f 33//66 45//66 46//66
f 34//67 47//67 35//67
f 34//68 46//68 47//68
f 35//69 48//69 36//69
f 35//70 47//70 48//70
f 36//71 37//71 25//71
f 36//72 48//72 37//72
f 37//73 50//73 38//73
f 37//74 49//74 50//74
f 38//75 51//75 39//75
f 38//76 50//76 51//76
f 39//77 52//77 40//77
f 39//78 51//78 52//78
f 40//79 53//79 41//79
f 40//80 52//80 53//80
f 41//81 54//81 42//81
f 41//82 53//82 54//82
f 42//83 55//83 43//83
f 42//84 54//84 55//84
f 43//85 56//85 44//85
f 43//86 55//86 56//86
f 44//87 57//87 45//87
f 44//88 56//88 57//88
f 45//89 58//89 46//89
f 45//90 57//90 58//90
f 46//91 59//91 47//91
f 46//92 58//92 59//92
f 47//93 60//93 48//93
f 47//94 59//94 60//94
f 48//95 49//95 37//95
f 48//96 60//96 49//96
f 1//97 2//97 61//97
f 2//98 3//98 61//98
f 3//99 4//99 61//99
f 4//100 5//100 61//100
f 5//101 6//101 61//101
f 6//102 7//102 61//102
f 7//103 8//103 61//103
f 8//104 9//104 61//104
f 9//105 10//105 61//105
f 10//106 11//106 61//106
f 11//107 12//107 61//107
f 12//108 1//108 61//108
f 62//109 66//109 63//109
f 63//110 66//110 64//110
f 64//111 66//111 65//111
f 65//112 66//112 62//112
f 67//113 71//113 68//113
f 68//114 71//114 69//114
f 69//115 71//115 70//115
f 70//116 71//116 67//116
f 72//117 76//117 73//117
f 73//118 76//118 74//118
f 74//119 76//119 75//119
f 75//120 76//120 72//120
f 77//121 81//121 78//121
f 78//122 81//122 79//122
f 79//123 81//123 80//123
f 80//124 81//124 77//124
f 82//125 86//125 83//125
f 83//126 86//126 84//126
f 84//127 86//127 85//127
f 85//128 86//128 82//128
f 87//129 91//129 88//129
f 88//130 91//130 89//130
f 89//131 91//131 90//131
f 90//132 91//132 87//132
f 92//133 93//133 116//133
f 93//134 94//134 116//134
f 94//135 95//135 116//135
f 95//136 96//136 116//136
f 96//137 97//137 116//137
f 97//138 98//138 116//138
f 98//139 99//139 116//139
f 99//140 92//140 116//140
f 92//141 101//141 93//141
f 92//142 100//142 101//142
f 93//143 102//143 94//143
f 93//144 101//144 102//144
f 94//145 103//145 95//145
f 94//146 102//146 103//146
f 95//147 104//147 96//147
f 95//148 103//148 104//148
f 96//149 105//149 97//149
f 96//150 104//150 105//150
f 97//151 106//151 98//151
f 97//152 105//152 106//152
f 98//153 107//153 99//153
f 98//154 106//154 107//154
f 99//155 100//155 92//155
f 99//156 107//156 100//156
f 100//157 109//157 101//157
f 100//158 108//158 109//158
f 101//159 110//159 102//159
f 101//160 109//160 110//160
f 102//161 111//161 103//161
f 102//162 110//162 111//162
f 103//163 112//163 104//163
f 103//164 111//164 112//164
f 104//165 113//165 105//165
f 104//166 112//166 113//166
f 105//167 114//167 106//167
f 105//168 113//168 114//168
f 106//169 115//169 107//169
f 106//170 114//170 115//170
f 107//171 108//171 100//171
f 107//172 115//172 108//172
f 108//173 117//173 109//173
f 109//174 117//174 110//174
f 110//175 117//175 111//175
f 111//176 117//176 112//176
f 112//177 117//177 113//177
f 113//178 117//178 114//178
f 114//179 117//179 115//179
f 115//180 117//180 108//180
f 118//181 122//181 119//181
f 119//182 122//182 120//182
f 120//183 122//183 121//183
f 121//184 122//184 118//184
f 123//185 127//185 124//185
f 124//186 127//186 125//186
f 125//187 127//187 126//187
f 126//188 127//188 123//188
f 129//189 128//189 130//189
f 130//190 128//190 131//190
f 131//191 128//191 132//191
f 132//192 128//192 133//192
f 133//193 128//193 134//193
f 134//194 128//194 135//194
f 135//195 128//195 136//195
f 136//196 128//196 137//196
f 137//197 128//197 138//197
f 138//198 128//198 129//198
f 139//199 130//199 140//199
f 139//200 129//200 130//200
f 140//201 131//201 141//201
f 140//202 130//202 131//202
f 141//203 132//203 142//203
f 141//204 131//204 132//204
f 142//205 133//205 143//205
f 142//206 132//206 133//206
f 143//207 134//207 144//207
f 143//208 133//208 134//208
f 144//209 135//209 145//209
f 144//210 134//210 135//210
f 145//211 136//211 146//211
f 145//212 135//212 136//212
f 146//213 137//213 147//213
f 146//214 136//214 137//214
f 147//215 138//215 148//215
f 147//216 137//216 138//216
f 148//217 129//217 139//217
f 148//218 138//218 129//218
f 149//219 140//219 150//219
f 149//220 139//220 140//220
f 150//221 141//221 151//221
f 150//222 140//222 141//222
f 151//223 142//223 152//223
f 151//224 141//224 142//224
f 152//225 143//225 153//225
f 152//226 142//226 143//226
f 153//227 144//227 154//227
f 153//228 143//228 144//228
f 154//229 145//229 155//229
f 154//230 144//230 145//230
f 155//231 146//231 156//231
f 155//232 145//232 146//232
f 156//233 147//233 157//233
f 156//234 146//234 147//234
f 157//235 148//235 158//235
f 157//236 147//236 148//236
f 158//237 139//237 149//237
f 158//238 148//238 139//238
f 159//239 150//239 160//239
f 159//240 149//240 150//240
f 160//241 151//241 161//241
f 160//242 150//242 151//242
f 161//243 152//243 162//243
f 161//244 151//244 152//244
f 162//245 153//245 163//245
f 162//246 152//246 153//246
f 163//247 154//247 164//247
f 163//248 153//248 154//248
f 164//249 155//249 165//249
f 164//250 154//250 155//250
f 165//251 156//251 166//251
f 165//252 155//252 156//252
f 166//253 157//253 167//253
f 166//254 156//254 157//254
f 167//255 158//255 168//255
f 167//256 157//256 158//256
f 168//257 149//257 159//257
f 168//258 158//258 149//258
f 159//259 160//259 169//259
f 160//260 161//260 169//260
f 161//261 162//261 169//261
f 162//262 163//262 169//262
f 163//263 164//263 169//263
f 164//264 165//264 169//264
f 165//265 166//265 169//265
f 166//266 167//266 169//266
f 167//267 168//267 169//267
f 168//268 159//268 169//268
f 170//269 174//269 171//269
f 171//270 174//270 172//270
f 172//271 174//271 173//271
f 173//272 174//272 170//272
f 175//273 179//273 176//273
f 176//274 179//274 177//274
f 177//275 179//275 178//275
f 178//276 179//276 175//276
f 175//277 176//277 180//277
f 176//278 177//278 180//278
f 177//279 178//279 180//279
f 178//280 175//280 180//280
f 181//281 185//281 182//281
f 182//282 185//282 183//282
f 183//283 185//283 184//283
f 184//284 185//284 181//284
f 181//285 182//285 186//285
f 182//286 183//286 186//286
f 183//287 184//287 186//287
f 184//288 181//288 186//288
f 187//289 191//289 188//289
f 188//290 191//290 189//290
f 189//291 191//291 190//291
f 190//292 191//292 187//292
f 192//293 200//293 193//293
f 193//294 200//294 194//294
f 194//295 200//295 195//295
f 195//296 200//296 196//296
f 196//297 200//297 197//297
f 197//298 200//298 198//298
f 198//299 200//299 199//299
f 199//300 200//300 192//300
f 192//301 193//301 201//301
f 193//302 194//302 201//302
f 194//303 195//303 201//303
f 195//304 196//304 201//304
f 196//305 197//305 201//305
f 197//306 198//306 201//306
f 198//307 199//307 201//307
f 199//308 192//308 201//308
f 202//309 206//309 203//309
f 203//310 206//310 204//310
f 204//311 206//311 205//311
f 205//312 206//312 202//312
f 207//313 215//313 208//313
f 208//314 215//314 209//314
f 209//315 215//315 210//315
f 210//316 215//316 211//316
f 211//317 215//317 212//317
f 212//318 215//318 213//318
f 213//319 215//319 214//319
f 214//320 215//320 207//320
f 207//321 208//321 216//321
f 208//322 209//322 216//322
f 209//323 210//323 216//323
f 210//324 211//324 216//324
f 211//325 212//325 216//325
f 212//326 213//326 216//326
f 213//327 214//327 216//327
f 214//328 207//328 216//328
